<mxfile host="app.diagrams.net" modified="2024-06-23T17:51:16.741Z" agent="Mozilla/5.0 (Windows NT 10.0; Win64; x64) AppleWebKit/537.36 (KHTML, like Gecko) Chrome/126.0.0.0 Safari/537.36" version="24.5.4" etag="qAkzgrXrcZP0Nmue6zsP" type="github">
  <diagram name="Page-1" id="3NC0FykZiHOq_ZJO0hmW">
    <mxGraphModel>
      <root>
        <mxCell id="0" />
        <mxCell id="1" parent="0" />
      </root>
    </mxGraphModel>
  </diagram>
</mxfile>
